<svg xmlns="http://www.w3.org/2000/svg" version="1.1" viewBox="-5.0 -10.0 110.0 135.0">
      <g>
            <path
                  d="m54.688 62.5c-0.46875 0-0.78125-0.15625-1.0938-0.46875s-0.46875-0.625-0.46875-1.0938 0.15625-0.78125 0.46875-1.0938c0.625-0.625 1.5625-0.625 2.1875 0 0.3125 0.3125 0.46875 0.78125 0.46875 1.0938s-0.15625 0.78125-0.46875 1.0938-0.625 0.46875-1.0938 0.46875z" />
            <path
                  d="m26.562 78.125h-12.5c-0.9375 0-1.5625-0.625-1.5625-1.5625s0.625-1.5625 1.5625-1.5625h12.5c0.9375 0 1.5625 0.625 1.5625 1.5625s-0.625 1.5625-1.5625 1.5625z" />
            <path
                  d="m34.375 71.875h-20.312c-0.9375 0-1.5625-0.625-1.5625-1.5625s0.625-1.5625 1.5625-1.5625h20.312c0.9375 0 1.5625 0.625 1.5625 1.5625s-0.625 1.5625-1.5625 1.5625z" />
            <path
                  d="m89.062 28.125h-7.8125v-17.188c0-4.375-3.4375-7.8125-7.8125-7.8125h-50c-4.375 0-7.8125 3.4375-7.8125 7.8125v17.188h-4.6875c-2.6562 0-4.6875 2.0312-4.6875 4.6875v59.375c0 2.6562 2.0312 4.6875 4.6875 4.6875h78.125c1.0938 0 2.1875-0.46875 2.9688-1.0938 0.9375-0.78125 1.5625-2.0312 1.5625-3.4375v-59.531c0.15625-2.6562-1.875-4.6875-4.5312-4.6875zm1.5625 4.6875v59.062l-9.375-9.375v-51.25h7.8125c0.9375 0 1.5625 0.625 1.5625 1.5625zm-36.875 22.969c0.3125-0.15625 0.625-0.3125 0.9375-0.3125s0.625 0.15625 0.9375 0.3125l3.125 2.3438c0.46875 0.3125 0.625 0.78125 0.625 1.25v14.062c0 0.9375-0.625 1.5625-1.5625 1.5625h-6.25c-0.9375 0-1.5625-0.625-1.5625-1.5625v-14.062c0-0.46875 0.15625-0.9375 0.625-1.25zm-13.125-27.656v-15.625h3.125v15.625zm-15.625 0v-15.625h12.5v15.625zm21.875-15.625h3.125v15.625h-3.125zm25-3.125h-12.656c-0.3125-1.0938-0.78125-2.1875-1.4062-3.125h14.062zm-15.938 0h-2.8125v-2.8125c1.4062 0.46875 2.3438 1.4062 2.8125 2.8125zm-1.25 31.25c-0.9375 0-1.5625-0.625-1.5625-1.5625v-26.562h3.125v26.562c0 0.9375-0.625 1.5625-1.5625 1.5625zm4.6875-28.125h12.5v15.625h-12.5zm9.375 18.75h9.375v50.938l-9.375 9.375zm10.781 53.906 8.5938 8.5938h-17.188zm-1.4062-74.219v17.188h-3.125v-21.562c1.875 0.625 3.125 2.3438 3.125 4.375zm-28.125-4.6875v3.125h-25v-3.125zm-31.25 4.6875c0-2.0312 1.25-3.75 3.125-4.375v32.5c0 0.9375-0.625 1.5625-1.5625 1.5625s-1.5625-0.625-1.5625-1.5625zm-9.375 81.25v-59.375c0-0.9375 0.625-1.5625 1.5625-1.5625h4.6875v7.8125c0 2.6562 2.0312 4.6875 4.6875 4.6875s4.6875-2.0312 4.6875-4.6875v-7.8125h25v7.8125c0 2.0312 1.25 3.75 3.125 4.375v9.2188c-0.46875 0.15625-0.9375 0.3125-1.25 0.625l-3.125 2.3438c-1.25 0.9375-1.875 2.3438-1.875 3.75v14.062c0 2.6562 2.0312 4.6875 4.6875 4.6875h6.25c2.6562 0 4.6875-2.0312 4.6875-4.6875v-14.062c0-1.4062-0.625-2.8125-1.875-3.75l-3.125-2.3438c-0.3125-0.3125-0.78125-0.46875-1.25-0.625v-9.2188c1.875-0.625 3.125-2.3438 3.125-4.375v-7.8125h6.25v62.5h-54.688c-0.9375 0-1.5625-0.625-1.5625-1.5625z" />
      </g>
</svg>