<svg xmlns="http://www.w3.org/2000/svg" version="1.1" viewBox="-5.0 -10.0 110.0 135.0">
      <path
            d="m81.938 23.312h-1.9375l-2.4062-10.781c-0.1875-0.84375-1.0234-1.3672-1.8633-1.1836l-53.672 11.965h-3.9961c-0.86328 0-1.5625 0.69922-1.5625 1.5625v32.938c0 0.86328 0.69922 1.5625 1.5625 1.5625h10.82v3.9492c0 3.0586 1.0859 6 3.0586 8.2812 0.027344 0.035156 0.054688 0.066406 0.074219 0.09375 1.4844 1.7344 2.3047 3.9531 2.3047 6.2422v0.46484h-0.13281c-0.86328 0-1.5625 0.69922-1.5625 1.5625v7.1602c0 0.86328 0.69922 1.5625 1.5625 1.5625s1.5625-0.69922 1.5625-1.5625v-5.5977h0.11328c0.007813 0 0.015625 0.003906 0.023438 0.003906 0.007812 0 0.015625-0.003906 0.023437-0.003906h25.305v5.5977c0 0.86328 0.69922 1.5625 1.5625 1.5625 0.86328 0 1.5625-0.69922 1.5625-1.5625v-7.1602c0-0.81641-0.63281-1.4648-1.4297-1.5352v-6.8594c0-1.2109 0.4375-2.3789 1.2305-3.293l2.7773-3.207c1.2852-1.4805 1.9961-3.3789 1.9961-5.3398v-0.35938h13.031c0.86328 0 1.5625-0.69922 1.5625-1.5625l-0.007812-32.938c0-0.86328-0.69922-1.5625-1.5625-1.5625zm-7.0508-8.5781 1.9141 8.5781h-1.3008l-0.22656-1.0039c-0.089844-0.40625-0.33984-0.75781-0.6875-0.98047-0.35156-0.22266-0.77734-0.29297-1.1797-0.20312-1.668 0.375-3.3086-0.67578-3.6836-2.3359-0.19141-0.83984-1.0312-1.3633-1.8633-1.1797l-25.598 5.707h-5.8398zm-5.5352 8.5781h-12.727l10.586-2.3594c0.5 0.97266 1.2461 1.7773 2.1406 2.3594zm-4.8008 39.715-2.7812 3.207c-1.2852 1.4805-1.9922 3.3789-1.9922 5.3398v6.832h-22.332v-0.46484c0-2.9883-1.0508-5.8867-3.043-8.2539-0.03125-0.042969-0.0625-0.085938-0.097656-0.125-1.4805-1.7148-2.2969-3.9297-2.2969-6.2383v-3.9492h23.059l-0.042968 0.035156c-1.7969 1.4688-2.8281 3.6406-2.8281 5.9648v4.5c0 0.86328 0.69922 1.5625 1.5625 1.5625 0.86328 0 1.5625-0.69922 1.5625-1.5625v-4.5c0-1.3789 0.61328-2.6719 1.6797-3.543l4.3125-3.5234c0.36328-0.29688 0.57422-0.74219 0.57422-1.2109v-4.0977c0-0.003906 0.003906-0.011719 0.003906-0.015625s-0.003906-0.011719-0.003906-0.015625v-3.8125c0-0.66406 0.3125-1.1172 0.57422-1.3789 0.40234-0.40234 0.98047-0.59766 1.5625-0.55078 0.96875 0.085938 1.7539 1.0469 1.7539 2.1406v3.6094 0.007813 0.007813 4.8125 0.007812 0.007812 1.9141c0.003906 1.2109-0.43359 2.3789-1.2266 3.293zm-0.24609-18.914c-1.5078-0.13672-2.9922 0.39453-4.0508 1.4531-0.96094 0.96094-1.4922 2.2344-1.4922 3.5898v2.2656h-29.289c-0.49609-2.5742-2.4727-4.6289-5.0039-5.2383v-9.9648c2.4336-0.58594 4.3555-2.5039 4.9414-4.9414h41.18c0.58594 2.4336 2.5039 4.3555 4.9414 4.9414v9.9648c-2.5312 0.60938-4.5117 2.6641-5.0039 5.2383h-1.6172v-2.0547c-0.003906-2.7188-2.0234-5.0234-4.6055-5.2539zm16.07 12.137h-11.469v-1.7031h3.0938c0.45312 0 0.87109-0.23828 1.1719-0.57812 0.29688-0.33984 0.42188-0.83203 0.35938-1.2812 0-1.9648 1.5977-3.5625 3.5625-3.5625 0.86328 0 1.5625-0.69922 1.5625-1.5625v-12.719c0-0.86328-0.69922-1.5625-1.5625-1.5625-1.9648 0-3.5625-1.5977-3.5625-3.5625 0-0.86328-0.69922-1.5625-1.5625-1.5625h-43.938c-0.86328 0-1.5625 0.69922-1.5625 1.5625 0 1.9648-1.5977 3.5625-3.5625 3.5625-0.86328 0-1.5625 0.69922-1.5625 1.5625v12.719c0 0.86328 0.69922 1.5625 1.5625 1.5625 1.9648 0 3.5625 1.5977 3.5469 3.6328-0.066406 0.44922 0.066406 0.90625 0.36328 1.25s0.72656 0.53906 1.1836 0.53906h30.762v1.7031h-39.137v-29.812h60.75z" />
      <path
            d="m50 34.543c-3.7539 0-6.8047 3.0547-6.8047 6.8047 0 3.7539 3.0547 6.8047 6.8047 6.8047 3.7539 0 6.8047-3.0547 6.8047-6.8047 0-3.7539-3.0547-6.8047-6.8047-6.8047zm0 10.484c-2.0312 0-3.6797-1.6523-3.6797-3.6797 0-2.0312 1.6523-3.6797 3.6797-3.6797 2.0312 0 3.6797 1.6523 3.6797 3.6797 0 2.0312-1.6523 3.6797-3.6797 3.6797z" />
      <path
            d="m35.023 39.785h-2.3711c-0.86328 0-1.5625 0.69922-1.5625 1.5625 0 0.86328 0.69922 1.5625 1.5625 1.5625h2.3711c0.86328 0 1.5625-0.69922 1.5625-1.5625 0-0.86328-0.69922-1.5625-1.5625-1.5625z" />
      <path
            d="m67.344 39.785h-2.3711c-0.86328 0-1.5625 0.69922-1.5625 1.5625 0 0.86328 0.69922 1.5625 1.5625 1.5625h2.3711c0.86328 0 1.5625-0.69922 1.5625-1.5625 0-0.86328-0.69922-1.5625-1.5625-1.5625z" />
      </svg>