<svg xmlns="http://www.w3.org/2000/svg" version="1.1" viewBox="-5.0 -10.0 110.0 135.0">
      <path d="m86.664 100h-73.328c-0.73438 0-1.332-0.59766-1.332-1.332v-67.422c0-0.73438 0.59766-1.332 1.332-1.332h73.328c0.73438 0 1.332 0.59766 1.332 1.332v67.422c0 0.73438-0.59375 1.332-1.332 1.332zm-72-2.6602h70.668v-64.762h-70.668z"
            fill-rule="evenodd" />
      <path d="m86.664 100c-0.23828 0-0.48047-0.0625-0.6875-0.19141-0.39844-0.24219-0.64062-0.67188-0.64062-1.1367v-67.422c0-0.73438 0.59766-1.332 1.332-1.332h11.301c0.73438 0 1.332 0.59766 1.332 1.332v61.516c0 0.49609-0.27734 0.94922-0.71484 1.1797l-11.301 5.9062c-0.19531 0.10156-0.40625 0.15234-0.61719 0.15234zm1.332-67.422v63.895l8.6406-4.5156v-59.383h-8.6406z"
            fill-rule="evenodd" />
      <path d="m13.336 100c-0.21094 0-0.42188-0.050781-0.61719-0.15234l-11.301-5.9062c-0.4375-0.23047-0.71484-0.68359-0.71484-1.1797v-61.516c0-0.73438 0.59766-1.332 1.332-1.332h11.301c0.73437 0 1.332 0.59766 1.332 1.332v67.422c0 0.46484-0.24219 0.89844-0.64062 1.1367-0.21094 0.12891-0.44922 0.19141-0.6875 0.19141zm-9.9688-8.043 8.6406 4.5156v-63.895h-8.6406z"
            fill-rule="evenodd" />
      <path d="m71.754 42.281c-0.73438 0-1.332-0.59766-1.332-1.332v-25.836c0-6.8633-5.5859-12.449-12.449-12.449h-15.949c-6.8633 0-12.449 5.5859-12.449 12.449v25.836c0 0.73438-0.59766 1.332-1.332 1.332-0.73438 0-1.332-0.59766-1.332-1.332v-25.836c0-8.332 6.7812-15.109 15.109-15.109h15.949c8.332 0 15.109 6.7812 15.109 15.109v25.836c0 0.73438-0.59766 1.332-1.332 1.332z"
            fill-rule="evenodd" />
      <path d="m71.754 52.613c-3.582 0-6.5-2.9141-6.5-6.5 0-3.582 2.9141-6.5 6.5-6.5 3.582 0 6.5 2.9141 6.5 6.5 0 3.582-2.9141 6.5-6.5 6.5zm0-10.336c-2.1172 0-3.8359 1.7227-3.8359 3.8359 0 2.1172 1.7227 3.8359 3.8359 3.8359 2.1172 0 3.8359-1.7227 3.8359-3.8359 0-2.1172-1.7227-3.8359-3.8359-3.8359z"
            fill-rule="evenodd" />
      <path d="m28.246 52.613c-3.582 0-6.5-2.9141-6.5-6.5 0-3.582 2.9141-6.5 6.5-6.5 3.582 0 6.5 2.9141 6.5 6.5 0 3.582-2.9141 6.5-6.5 6.5zm0-10.336c-2.1172 0-3.8359 1.7227-3.8359 3.8359 0 2.1172 1.7188 3.8359 3.8359 3.8359 2.1172 0 3.8359-1.7227 3.8359-3.8359 0-2.1172-1.7188-3.8359-3.8359-3.8359z"
            fill-rule="evenodd" />
      <path d="m57.555 72.473c-1.125 0-2.2344-0.17578-3.3047-0.52734-0.64453-0.21094-1.0312-0.875-0.89062-1.5391 0.62109-2.9453 2.4727-5.5 5.082-7.0039 2.5898-1.4961 5.7695-1.8242 8.6055-0.89844 0.64453 0.21094 1.0312 0.875 0.89062 1.543-0.62109 2.9453-2.4727 5.5-5.082 7.0039-1.6133 0.92969-3.4492 1.4258-5.3008 1.4258zm-1.2188-2.7539c1.7695 0.27734 3.6211-0.070312 5.1914-0.97266 1.5781-0.91016 2.7852-2.332 3.4375-4.0078-1.7656-0.27734-3.625 0.066407-5.1914 0.97266-1.5781 0.91016-2.7852 2.332-3.4375 4.0078z"
            fill-rule="evenodd" />
      <path d="m50.387 87.973c-0.58594 0-1.125-0.39062-1.2852-0.98828-3.0352-11.332 4.4414-17.125 4.7617-17.367 0.58594-0.44141 1.4219-0.32422 1.8633 0.26172 0.44141 0.58594 0.32422 1.418-0.25781 1.8594-0.26172 0.19922-6.3555 5.0078-3.7969 14.555 0.19141 0.71094-0.23047 1.4375-0.94141 1.6289-0.11719 0.03125-0.23047 0.046875-0.34375 0.046875z"
            fill-rule="evenodd" />
      <path d="m41.652 76.648c-0.92578 0-1.8516-0.12109-2.7539-0.36328-2.9062-0.77734-5.3555-2.7656-6.7188-5.4492-0.30859-0.60547-0.10938-1.3477 0.46094-1.7188 2.5117-1.6367 5.6406-2.1367 8.5469-1.3594 2.9062 0.77734 5.3555 2.7656 6.7188 5.4492 0.30859 0.60547 0.10938 1.3477-0.46094 1.7188-1.7305 1.1289-3.7344 1.7227-5.7891 1.7227zm-6.4258-5.918c1.0664 1.4531 2.6016 2.5117 4.3594 2.9844 1.7617 0.47266 3.6289 0.32031 5.2656-0.40234-1.0664-1.4531-2.6016-2.5117-4.3594-2.9844-1.7578-0.47266-3.6289-0.32031-5.2656 0.40234z"
            fill-rule="evenodd" />
      <path d="m50.609 77.93c-0.34375 0-0.6875-0.13281-0.94922-0.39844-1.7422-1.7734-3.4297-2.4844-3.4453-2.4922-0.67578-0.28125-1.0039-1.0547-0.72656-1.7344 0.27734-0.67578 1.0469-1.0078 1.7266-0.73047 0.089844 0.035156 2.1914 0.90234 4.3438 3.0938 0.51562 0.52344 0.50781 1.3672-0.019532 1.8828-0.25781 0.25391-0.59766 0.38281-0.93359 0.38281z"
            fill-rule="evenodd" />
      <path d="m76.922 89.523h-13.902c-0.73438 0-1.332-0.59766-1.332-1.332s0.59766-1.332 1.332-1.332h13.902c0.73438 0 1.332 0.59766 1.332 1.332s-0.59375 1.332-1.332 1.332z"
            fill-rule="evenodd" />
      <path d="m76.922 83.125h-10.191c-0.73438 0-1.332-0.59766-1.332-1.332s0.59766-1.332 1.332-1.332h10.191c0.73438 0 1.332 0.59766 1.332 1.332s-0.59375 1.332-1.332 1.332z"
            fill-rule="evenodd" />
      <path d="m76.922 76.727h-5.4766c-0.73437 0-1.332-0.59766-1.332-1.332s0.59766-1.332 1.332-1.332h5.4766c0.73438 0 1.332 0.59766 1.332 1.332s-0.59375 1.332-1.332 1.332z"
            fill-rule="evenodd" />
      <path d="m36.98 89.523h-13.902c-0.73438 0-1.332-0.59766-1.332-1.332s0.59766-1.332 1.332-1.332h13.902c0.73438 0 1.332 0.59766 1.332 1.332s-0.59766 1.332-1.332 1.332z"
            fill-rule="evenodd" />
      <path d="m33.27 83.125h-10.191c-0.73438 0-1.332-0.59766-1.332-1.332s0.59766-1.332 1.332-1.332h10.191c0.73438 0 1.332 0.59766 1.332 1.332s-0.59766 1.332-1.332 1.332z"
            fill-rule="evenodd" />
      <path d="m28.555 76.727h-5.4766c-0.73438 0-1.332-0.59766-1.332-1.332s0.59766-1.332 1.332-1.332h5.4766c0.73437 0 1.332 0.59766 1.332 1.332s-0.59766 1.332-1.332 1.332z"
            fill-rule="evenodd" />
      </svg>