<svg xmlns="http://www.w3.org/2000/svg" version="1.1" viewBox="-5.0 -10.0 110.0 135.0">
      <path
            d="m88.609 39.051h-32.141c-0.41016 0-0.80859-0.41016-0.60938-0.80859 0.19922-0.80859 0.41016-1.8203 0.41016-2.8281 0-2.6289-0.80859-5.0586-1.6211-6.8711l-2.0195-4.8594c-1.2188-2.8281-2.4297-5.8594-2.8281-8.8906-0.41016-3.0312 0-5.8594 1.2109-7.6797 1.0117-1.6211 0.39844-3.8398-1.6211-4.4492-1.4102-0.39844-2.8281 0.21094-3.6289 1.4219-2.0312 3.2305-2.6289 7.2695-2.0312 11.719 0.60938 3.8398 2.0312 7.2812 3.2383 10.309l2.0195 4.8516c0.60938 1.6211 1.2109 3.0312 1.2109 4.4492-0.19922 1.207-0.80859 2.418-1.6094 3.4258 0 0.21094-0.21094 0.21094-0.41016 0.21094h-36.789c-4.8516 0-8.8906 3.8398-8.8906 8.8906v40.629c0 4.8516 4.0391 8.8906 8.8906 8.8906h77.219c4.8516 0 8.8906-4.0391 8.8906-8.8906v-40.629c0-4.8516-4.0391-8.8906-8.8906-8.8906zm-21.629 9.2891c0-0.39844 0.19922-0.60156 0.60938-0.60156h7.0703c0.19922 0 0.60938 0.39844 0.60938 0.60156v6.8789c0 0.39844-0.21094 0.60156-0.60938 0.60156h-7.0703c-0.41016 0-0.60938-0.19922-0.60938-0.60156zm-14.152 0c0-0.39844 0.19922-0.60156 0.60938-0.60156h7.0703c0.39844 0 0.60938 0.39844 0.60938 0.60156v6.8789c0 0.39844-0.21094 0.60156-0.60938 0.60156h-7.0703c-0.41016 0-0.60938-0.19922-0.60938-0.60156zm0 16.781c0-0.39844 0.19922-0.60938 0.60938-0.60938h7.0703c0.39844 0 0.60938 0.21094 0.60938 0.60938v6.8711c0 0.41016-0.21094 0.60937-0.60938 0.60937h-7.0703c-0.41016 0-0.60938-0.19922-0.60938-0.60937zm-14.148-16.57c0-0.41016 0.19922-0.60938 0.60937-0.60938h7.0703c0.41016 0 0.60938 0.19922 0.60938 0.60938v6.8711c0 0.39844-0.19922 0.60938-0.60938 0.60938h-7.0703c-0.19922 0-0.60937-0.21094-0.60937-0.60938zm0 16.57c0-0.39844 0.19922-0.60938 0.60937-0.60938h7.0703c0.41016 0 0.60938 0.21094 0.60938 0.60938v6.8711c0 0.41016-0.19922 0.60937-0.60938 0.60937h-7.0703c-0.19922 0-0.60937-0.19922-0.60937-0.60937zm-13.949-16.57c0-0.41016 0.21094-0.60938 0.60938-0.60938h7.0703c0.41016 0 0.60938 0.19922 0.60938 0.60938v6.8711c0 0.39844-0.19922 0.60938-0.60938 0.60938h-7.0703c-0.39844 0-0.60938-0.21094-0.60938-0.60938zm-5.8594 40.02c0 0.39844-0.19922 0.60156-0.60156 0.60156h-7.082c-0.19922 0-0.60156-0.19922-0.60156-0.60156v-6.8711c0-0.41016 0.19922-0.60938 0.60156-0.60938h7.082c0.39844 0 0.60156 0.19922 0.60156 0.60938zm0-16.578c0 0.41016-0.19922 0.60937-0.60156 0.60937h-7.082c-0.19922 0-0.60156-0.19922-0.60156-0.60937v-6.8711c0-0.39844 0.19922-0.60938 0.60156-0.60938h7.082c0.39844 0 0.60156 0.21094 0.60156 0.60938zm0-16.57c0 0.39844-0.19922 0.60938-0.60156 0.60938h-7.082c-0.19922 0-0.60156-0.21094-0.60156-0.60938v-6.8711c0-0.41016 0.19922-0.60938 0.60156-0.60938h7.082c0.39844 0 0.60156 0.19922 0.60156 0.60938zm5.8594 16.57v-6.8711c0-0.39844 0.21094-0.60938 0.60938-0.60938h7.0703c0.41016 0 0.60938 0.21094 0.60938 0.60938v6.8711c0 0.41016-0.19922 0.60937-0.60938 0.60937h-7.0703c-0.39844 0-0.60938-0.19922-0.60938-0.60937zm43.488 16.578c0 0.39844-0.21094 0.60156-0.60938 0.60156h-35.371c-0.19922 0-0.60938-0.19922-0.41016-0.60156v-6.8711c0-0.41016 0.21094-0.60938 0.60938-0.60938h35.172c0.39844 0 0.60938 0.19922 0.60938 0.60938zm20.992 0c0 0.39844-0.19922 0.60156-0.60156 0.60156h-7.0781c-0.39844 0-0.60156-0.19922-0.60156-0.60156v-6.8711c0-0.41016 0.19922-0.60938 0.60156-0.60938h7.0781c0.39844 0 0.60156 0.19922 0.60156 0.60938zm0-16.578c0 0.41016-0.19922 0.60937-0.60156 0.60937h-21.23c-0.39844 0-0.60156-0.19922-0.60156-0.60937v-6.8711c0-0.39844 0.19922-0.60938 0.60156-0.60938h21.23c0.39844 0 0.60156 0.21094 0.60156 0.60938zm0-16.77c0 0.39844-0.19922 0.60156-0.60156 0.60156h-7.0781c-0.39844 0-0.60156-0.19922-0.60156-0.60156v-6.8789c0-0.39844 0.19922-0.60156 0.60156-0.60156h7.0781c0.39844 0 0.60156 0.39844 0.60156 0.60156z" />
      </svg>