<svg xmlns="http://www.w3.org/2000/svg" version="1.1" viewBox="-5.0 -10.0 110.0 135.0">
  <path
    d="m56.25 40.625v-18.75c0-0.82812-0.32812-1.625-0.91406-2.2109-0.58594-0.58594-1.3828-0.91406-2.2109-0.91406h-31.25c-1.7266 0-3.125 1.3984-3.125 3.125v18.75c0 0.82812 0.32812 1.625 0.91406 2.2109 0.58594 0.58594 1.3828 0.91406 2.2109 0.91406h31.25c0.82812 0 1.625-0.32812 2.2109-0.91406 0.58594-0.58594 0.91406-1.3828 0.91406-2.2109zm-6.25-3.125h-25v-12.5h25z" />
  <path
    d="m31.25 50h-3.125c-1.7266 0-3.125 1.3984-3.125 3.125s1.3984 3.125 3.125 3.125h3.125c1.7266 0 3.125-1.3984 3.125-3.125s-1.3984-3.125-3.125-3.125z" />
  <path
    d="m31.25 62.5h-3.125c-1.7266 0-3.125 1.3984-3.125 3.125s1.3984 3.125 3.125 3.125h3.125c1.7266 0 3.125-1.3984 3.125-3.125s-1.3984-3.125-3.125-3.125z" />
  <path
    d="m31.25 75h-3.125c-1.7266 0-3.125 1.3984-3.125 3.125s1.3984 3.125 3.125 3.125h3.125c1.7266 0 3.125-1.3984 3.125-3.125s-1.3984-3.125-3.125-3.125z" />
  <path
    d="m46.875 50h-3.125c-1.7266 0-3.125 1.3984-3.125 3.125s1.3984 3.125 3.125 3.125h3.125c1.7266 0 3.125-1.3984 3.125-3.125s-1.3984-3.125-3.125-3.125z" />
  <path
    d="m46.875 62.5h-3.125c-1.7266 0-3.125 1.3984-3.125 3.125s1.3984 3.125 3.125 3.125h3.125c1.7266 0 3.125-1.3984 3.125-3.125s-1.3984-3.125-3.125-3.125z" />
  <path
    d="m46.875 75h-3.125c-1.7266 0-3.125 1.3984-3.125 3.125s1.3984 3.125 3.125 3.125h3.125c1.7266 0 3.125-1.3984 3.125-3.125s-1.3984-3.125-3.125-3.125z" />
  <path
    d="m81.25 15.625h-12.5c0-5.1758-4.1992-9.375-9.375-9.375h-43.75c-5.1758 0-9.375 4.1992-9.375 9.375v28.125c0.003906 5.6992 3.8594 10.672 9.375 12.102v25.398c0 3.3164 1.3164 6.4961 3.6602 8.8398s5.5234 3.6602 8.8398 3.6602h18.75c5.6836-0.019531 10.637-3.8711 12.055-9.375h22.32c3.3164 0 6.4961-1.3164 8.8398-3.6602s3.6602-5.5234 3.6602-8.8398v-43.75c0-3.3164-1.3164-6.4961-3.6602-8.8398s-5.5234-3.6602-8.8398-3.6602zm-6.25 6.25v56.25h-15.625v-22.273c5.5156-1.4297 9.3711-6.4023 9.375-12.102v-21.875zm-28.125 65.625h-18.75c-3.4531 0-6.25-2.7969-6.25-6.25v-28.125c0-0.82812-0.32812-1.625-0.91406-2.2109-0.58594-0.58594-1.3828-0.91406-2.2109-0.91406-3.4531 0-6.25-2.7969-6.25-6.25v-28.125c0-1.7266 1.3984-3.125 3.125-3.125h43.75c0.82812 0 1.625 0.32812 2.2109 0.91406 0.58594 0.58594 0.91406 1.3828 0.91406 2.2109v28.125c0 1.6562-0.66016 3.2461-1.832 4.418s-2.7617 1.832-4.418 1.832c-1.7266 0-3.125 1.3984-3.125 3.125v28.125c0 1.6562-0.66016 3.2461-1.832 4.418s-2.7617 1.832-4.418 1.832zm40.625-15.625c0 1.6562-0.66016 3.2461-1.832 4.418s-2.7617 1.832-4.418 1.832v-56.25c1.6562 0 3.2461 0.66016 4.418 1.832s1.832 2.7617 1.832 4.418z" />
  </svg>