<svg xmlns="http://www.w3.org/2000/svg" version="1.1" viewBox="-5.0 -10.0 110.0 135.0">
      <path
            d="m98.789 89.695-3.0312-24.746-0.50391-54.141v-0.10156-0.20312-0.10156c0-0.10156 0-0.10156-0.10156-0.20312 0 0 0-0.10156-0.10156-0.10156l-0.10156-0.10156s0-0.10156-0.10156-0.10156l-0.10156-0.10156s0-0.10156-0.10156-0.10156c0 0-0.10156-0.10156-0.20312-0.10156 0 0-0.10156 0-0.10156-0.10156-0.10156 0-0.10156-0.10156-0.20312-0.10156h-0.10156-0.20312-0.10156c-4.3438-0.50391-8.082-0.80859-11.414-1.1094l0.007813-5.8516v-0.10156-0.10156-0.10156-0.10156-0.10156-0.10156-0.10156-0.10156c0-0.10156 0-0.10156-0.10156-0.10156 0-0.10156-0.10156-0.10156-0.10156-0.10156s-0.10156-0.10156-0.20312-0.10156c-0.10156 0-0.10156-0.10156-0.20312-0.10156-0.10156 0-0.10156 0-0.20312-0.10156h-0.20312-0.10156-0.10156-0.10156l-74.137 6.7734h-0.10156-0.10156c-0.10156 0-0.10156 0-0.20312 0.10156h-0.10156c-0.097656 0.10156-0.19922 0.10156-0.19922 0.10156s-0.10156 0-0.10156 0.10156l-0.20312 0.20312-0.10156 0.10156s0 0.10156-0.10156 0.10156c0 0 0 0.10156-0.10156 0.10156 0 0 0 0.10156-0.10156 0.10156v0.10156 0.10156 0.10156 0.10156 0.10156 0.10156l1.3125 57.574-4.3359 20.902c-0.10156 0.70703 0.20312 1.4141 0.80859 1.7188l18.789 8.7891h0.10156 0.10156c0.10156 0 0.30469 0.10156 0.50391 0.10156h0.10156l74.547-7.0703c0.40234 0 0.80859-0.20312 1.0117-0.60547 0.19531-0.41016 0.39844-0.71094 0.39844-1.1172zm-67.07-78.586c-0.20312-1.4141-1.3125-1.8164-5.2539-2.1211l44.746-4.2422c-3.8398 1.7188-4.4453 2.3242-4.2422 3.6367 0.30469 1.6172 1.5156 1.8164 6.4648 2.1211l-43.535 3.0312c1.6172-0.70703 1.918-1.4141 1.8203-2.4258zm44.141-3.332c-1.2109-0.10156-2.4258-0.10156-3.4336-0.20312 1.6172-0.70703 3.9375-1.6172 6.4648-2.7266l0.50391-0.20312v3.332c-1.2109 0.003907-2.4258-0.097656-3.5352-0.19922zm-66.062 59.699v-0.30469l-1.3125-56.16c5.4531 0.50391 10.102 0.70703 13.637 0.80859 1.4141 0.10156 2.8281 0.10156 4.0391 0.20313-2.0195 0.80859-4.5469 1.8164-5.9609 2.3242h-0.10156c-0.10156 0-0.10156 0-0.10156 0.10156 0 0-0.10156 0-0.10156 0.10156l-0.10156 0.10156-0.20312 0.20312-0.20312 0.20312s0 0.10156-0.10156 0.10156v0.10156 0.10156 0.10156 0.10156 56.262 0.10156l1.8164 22.223-15.445-6.8789zm14.344 27.879-1.918-23.23v-54.852l70-4.8477 0.50391 52.625v0.20312l2.8281 23.332z" />
      <path
            d="m75.453 25.555c1.6172-0.60547 2.8281-2.2227 2.8281-4.0391 0-2.4258-1.918-4.3438-4.3438-4.3438s-4.3438 1.918-4.3438 4.3438c0 1.8164 1.2109 3.4336 2.8281 4.0391v0.10156c0 10-6.1602 16.969-15.051 16.969-8.2812 0-14.949-6.668-15.051-14.949 1.7188-0.60547 2.9297-2.2227 2.9297-4.0391 0-2.4258-1.918-4.3438-4.3438-4.3438s-4.3438 1.918-4.3438 4.3438c0 1.8164 1.1094 3.332 2.7266 4.0391 0 9.8984 8.1836 17.98 18.082 17.98 10.508 0 18.082-8.3828 18.082-20.102zm-36.867-1.918c0-1.3125 1.0117-2.3242 2.3242-2.3242s2.3242 1.0117 2.3242 2.3242c0 0.70703-0.40234 1.4141-0.91016 1.8164v-1.3125c0-0.80859-0.70703-1.5156-1.5156-1.5156s-1.5156 0.70703-1.5156 1.5156v1.1133c-0.40234-0.40625-0.70703-1.0117-0.70703-1.6172zm33.031-2.1211c0-1.3125 1.0117-2.3242 2.3242-2.3242s2.3242 1.0117 2.3242 2.3242c0 0.70703-0.30469 1.3125-0.80859 1.7188v-1.0117c0-0.80859-0.70703-1.5156-1.5156-1.5156s-1.5156 0.70703-1.5156 1.5156v1.0117c-0.50781-0.40625-0.80859-1.0117-0.80859-1.7188z" />
      <path
            d="m15.961 69.898c-0.40234-0.20313-0.80859 0-1.0117 0.40234l-7.0703 15.656c-0.20312 0.40234 0 0.80859 0.40234 1.0117 0.10156 0 0.20312 0.10156 0.30469 0.10156 0.30469 0 0.60547-0.20312 0.70703-0.40234l7.0703-15.656c0.20312-0.50781 0-0.91016-0.40234-1.1133z" />
      <path
            d="m26.77 62.324c0-0.40234-0.30469-0.80859-0.80859-0.80859-0.50781 0-0.70703 0.40234-0.70703 0.80859v8.7891 0.10156l0.70703 5.3555c0 0.40234 0.40234 0.70703 0.70703 0.70703h0.10156c0.40234-0.10156 0.70703-0.40234 0.60547-0.80859l-0.70703-5.3555v-8.7891z" />
      <path
            d="m26.062 59.898c0.40234 0 0.80859-0.30469 0.80859-0.80859v-0.50391c0-0.40234-0.30469-0.80859-0.80859-0.80859-0.50781 0-0.80859 0.50391-0.80859 0.91016v0.50391c0 0.40625 0.40234 0.70703 0.80859 0.70703z" />
      <path
            d="m87.375 84.344-12.629 1.1094c-0.40234 0-0.70703 0.40234-0.70703 0.80859 0 0.40234 0.40234 0.70703 0.70703 0.70703h0.10156l12.625-1.1094c0.40234 0 0.70703-0.40234 0.70703-0.80859 0.003906-0.50391-0.40234-0.80859-0.80469-0.70703z" />
      </svg>