<svg xmlns="http://www.w3.org/2000/svg" version="1.1" viewBox="-5.0 -10.0 110.0 135.0">
  <path
    d="m39.172 16.949h6.1875l0.625-2.4492c0.70703-2.7305 1.7188-5.3438 3.1797-7.3242l0.0625-0.09375c1.6406-2.1797 3.8125-3.582 6.6758-3.582 2.8203 0 4.9688 1.3672 6.6055 3.4961l0.070313 0.085937c1.4961 1.9883 2.5273 4.6406 3.2383 7.418l0.62891 2.4453h6.1953c0.79688 0 1.4492 0.625 1.4961 1.4102l1.3711 10.043h16.348c0.82812 0 1.5 0.67187 1.5 1.5 0 0.13281-0.019531 0.26562-0.050781 0.39062l-7.9375 36.641c-0.14063 0.64453-0.67578 1.1016-1.2969 1.1719l-55.98 6.8164c-0.80859 0.09375-1.5391-0.46875-1.6602-1.2695l-9.0742-43.445c-0.16797-0.80859 0.35156-1.6016 1.1602-1.7695l0.30469-0.03125 17.48-0.003906 1.3867-10.152c0.10156-0.75 0.74219-1.2969 1.4805-1.2969zm35.719 67.895c1.6094 0 3.0664 0.65234 4.1211 1.707 1.0547 1.0547 1.707 2.5117 1.707 4.1211s-0.65234 3.0664-1.707 4.1211c-1.0547 1.0547-2.5117 1.707-4.1211 1.707s-3.0703-0.65234-4.1211-1.707c-1.0547-1.0547-1.707-2.5117-1.707-4.1211s0.65234-3.0703 1.707-4.1211c1.0547-1.0547 2.5117-1.707 4.1211-1.707zm2 3.8281c-0.51172-0.51172-1.2188-0.82812-2-0.82812s-1.4922 0.31641-2 0.82812c-0.51172 0.51172-0.82812 1.2188-0.82812 2s0.31641 1.4883 0.82812 2 1.2188 0.82812 2 0.82812 1.4883-0.31641 2-0.82812 0.82812-1.2188 0.82812-2-0.31641-1.4922-0.82812-2zm-42.91-3.8281c1.6094 0 3.0664 0.65234 4.1211 1.707 1.0547 1.0547 1.707 2.5117 1.707 4.1211s-0.65234 3.0664-1.707 4.1211c-1.0547 1.0547-2.5117 1.707-4.1211 1.707s-3.0664-0.65234-4.1211-1.707c-1.0547-1.0547-1.707-2.5117-1.707-4.1211s0.65234-3.0703 1.707-4.1211c1.0547-1.0547 2.5117-1.707 4.1211-1.707zm2 3.8281c-0.51172-0.51172-1.2188-0.82812-2-0.82812s-1.4883 0.31641-2 0.82812-0.82812 1.2188-0.82812 2 0.31641 1.4883 0.82812 2 1.2188 0.82812 2 0.82812 1.4883-0.31641 2-0.82812 0.82812-1.2188 0.82812-2-0.31641-1.4922-0.82812-2zm-27.836-65.438c-0.82812 0-1.5-0.67188-1.5-1.5s0.67188-1.5 1.5-1.5h4.4336c0.76172 0 1.3906 0.56641 1.4883 1.3047l12.227 58.547h58.883c0.82812 0 1.5 0.67187 1.5 1.5 0 0.82812-0.67188 1.5-1.5 1.5h-60.102c-0.69531-0.003907-1.3164-0.48828-1.4648-1.1953l-12.25-58.656h-3.2188zm67.777 8.1602 3.1406 22.992c0.035156 0.25781 0.054688 0.49609 0.054688 0.71094 0 1.543-0.67969 2.9297-1.7461 3.9805-1.0117 0.99609-2.3867 1.6836-3.8438 1.8867-0.30859 0.042968-0.60547 0.066406-0.88672 0.066406h-33.469c-0.27344 0-0.56641-0.023438-0.875-0.0625-1.4609-0.19922-2.8398-0.89062-3.8516-1.8867-1.0625-1.0469-1.7461-2.4375-1.7461-3.9844 0-0.21094 0.015625-0.44922 0.050781-0.71094l3.1406-22.992h-15.227l8.4336 40.375 53.566-6.5234 7.3359-33.855h-14.078zm-13.215-3.543c-0.11719-0.82031 0.45312-1.5781 1.2695-1.6953 0.82031-0.11719 1.5781 0.45312 1.6953 1.2695l3.3125 22.691c0.11719 0.82031-0.45312 1.5781-1.2695 1.6953-0.82031 0.11719-1.5781-0.45312-1.6953-1.2695zm-16.559-0.42187c0.11719-0.82031 0.875-1.3867 1.6953-1.2695 0.82031 0.11719 1.3867 0.875 1.2695 1.6953l-3.3125 22.691c-0.11719 0.82031-0.875 1.3867-1.6953 1.2695-0.82031-0.11719-1.3867-0.875-1.2695-1.6953zm8.2617 0.21094c0-0.82812 0.67188-1.5 1.5-1.5s1.5 0.67188 1.5 1.5v22.691c0 0.82812-0.67188 1.5-1.5 1.5s-1.5-0.67188-1.5-1.5zm-5.957-10.695h14.91l-0.4375-1.7109c-0.62109-2.4219-1.4961-4.707-2.7344-6.3516l-0.054687-0.078124c-1.082-1.4062-2.4648-2.3086-4.2266-2.3086-1.7891 0-3.1914 0.93359-4.2852 2.3867l-0.058594 0.070313c-1.207 1.6367-2.0664 3.8906-2.6758 6.2773l-0.43359 1.7109zm22.883 3h-30.859l-4.7617 34.844-0.015625 0.3125c0 0.69531 0.32812 1.3438 0.84375 1.8516 0.56641 0.55469 1.3359 0.94141 2.1523 1.0547l0.47656 0.027344h33.469l0.47656-0.03125c0.82031-0.10938 1.5898-0.49609 2.1562-1.0547 0.51172-0.50391 0.84375-1.1523 0.84375-1.8477l-0.019532-0.3125z" />
  </svg>