<svg xmlns="http://www.w3.org/2000/svg" version="1.1" viewBox="-5.0 -10.0 110.0 135.0">
      <g>
            <path
                  d="m57.812 43.75h18.75c1.7266 0 3.125 1.7266 3.125 3.125v4.6875c0 1.7266-1.3984 3.125-3.125 3.125h-18.75c-1.7266 0-3.125-1.7266-3.125-3.125v-4.6875c0-1.7266 1.3984-3.125 3.125-3.125z" />
            <path
                  d="m45.312 87.5h9.375c2.0508-0.035156 2.0547-3.0898 0-3.125h-9.375c-2.0508 0.035156-2.0547 3.0898 0 3.125z" />
            <path
                  d="m87.5 3.125h-37.5c-2.5859 0-4.6875 2.1016-4.6875 4.6875v18.75c0 2.5859 2.1016 4.6875 4.6875 4.6875h14.062v6.25h-14.062c0-2.5859-2.1016-4.6875-4.6875-4.6875h-1.5625v-6.25c0-1.7227-1.4023-3.125-3.125-3.125h-18.75c-1.7227 0-3.125 1.4023-3.125 3.125v6.25h-1.5625c-2.5859 0-4.6875 2.1016-4.6875 4.6875v10.25 8.5c0 1.3516 0.58594 2.5625 1.5039 3.4219l-2.8945 20.25c-1.9023 0.59766-3.2969 2.3555-3.2969 4.4531v7.8125c0 2.5859 2.1016 4.6875 4.6875 4.6875h75c2.5859 0 4.6875-2.1016 4.6875-4.6875v-7.8125c0-2.0977-1.3945-3.8594-3.2969-4.4531l-2.8945-20.25c0.91797-0.85547 1.5039-2.0664 1.5039-3.4219v-14.062c0-2.5859-2.1016-4.6875-4.6875-4.6875h-9.375v-6.25h14.062c2.5859 0 4.6875-2.1016 4.6875-4.6875v-18.75c0-2.5859-2.1016-4.6875-4.6875-4.6875zm-20.312 28.125h3.125v6.25h-3.125zm-3.9062-7.8125h-0.78125v1.5625c0 0.86328-0.69922 1.5625-1.5625 1.5625s-1.5625-0.69922-1.5625-1.5625v-1.5625h-3.125c-2.0508-0.035156-2.0547-3.0898 0-3.125h7.0312c1.0039-0.007812 1.0391-1.5508 0-1.5625h-4.6875c-5.6641-0.32812-4.8789-8.4141 0.78125-7.8125v-1.5625c0-0.86328 0.69922-1.5625 1.5625-1.5625s1.5625 0.69922 1.5625 1.5625v1.5625h3.125c2.0508 0.035156 2.0547 3.0898 0 3.125h-7.0312c-1.0039 0.007812-1.0391 1.5508 0 1.5625h4.6875c5.1484 0.125 5.1523 7.6758 0 7.8125zm-38.281 4.6875h12.5c2.0508 0.035156 2.0586 3.0898 0 3.125h-12.5c-2.0508-0.035156-2.0586-3.0898 0-3.125zm0 4.6875h12.5c2.0508 0.035156 2.0586 3.0898 0 3.125h-12.5c-2.0508-0.035156-2.0586-3.0898 0-3.125zm0 4.6875h12.5c2.0508 0.035156 2.0586 3.0898 0 3.125h-12.5c-2.0508-0.035156-2.0586-3.0898 0-3.125zm-9.375 10.281v-10.281c0-0.86328 0.69922-1.5625 1.5625-1.5625h1.5625v9.375c-2.0469 0.03125-2.0586 3.0898 0 3.125h25c2.0469-0.03125 2.0586-3.0898 0-3.125v-9.375h1.5625c0.86328 0 1.5625 0.69922 1.5625 1.5625v12.5c0 0.86328-0.69922 1.5625-1.5625 1.5625h-28.125c-0.86328 0-1.5625-0.69922-1.5625-1.5625zm71.875 35.031c0.86328 0 1.5625 0.69922 1.5625 1.5625v7.8125c0 0.86328-0.69922 1.5625-1.5625 1.5625h-75c-0.86328 0-1.5625-0.69922-1.5625-1.5625v-7.8125c0-0.86328 0.69922-1.5625 1.5625-1.5625zm-67.188-10.938c-2.0508-0.039062-2.0508-3.0859 0-3.125 2.0508 0.039062 2.0508 3.0859 0 3.125zm0 4.6875c-2.0508-0.039062-2.0508-3.0859 0-3.125 2.0508 0.039062 2.0508 3.0859 0 3.125zm-1.5625-10.938c0.039062-2.0508 3.0859-2.0508 3.125 0-0.039062 2.0508-3.0859 2.0508-3.125 0zm7.8125 6.25c-2.0508-0.039062-2.0508-3.0859 0-3.125 2.0508 0.039062 2.0508 3.0859 0 3.125zm0 4.6875c-2.0508-0.039062-2.0508-3.0859 0-3.125 2.0508 0.039062 2.0508 3.0859 0 3.125zm-1.5625-10.938c0.039062-2.0508 3.0859-2.0508 3.125 0-0.039062 2.0508-3.0859 2.0508-3.125 0zm7.8125 6.25c-2.0508-0.039062-2.0508-3.0859 0-3.125 2.0508 0.039062 2.0508 3.0859 0 3.125zm0 4.6875c-2.0508-0.039062-2.0508-3.0859 0-3.125 2.0508 0.039062 2.0508 3.0859 0 3.125zm-1.5625-10.938c0.039062-2.0508 3.0859-2.0508 3.125 0-0.039062 2.0508-3.0859 2.0508-3.125 0zm7.8125 6.25c-2.0508-0.039062-2.0508-3.0859 0-3.125 2.0508 0.039062 2.0508 3.0859 0 3.125zm0 4.6875c-2.0508-0.039062-2.0508-3.0859 0-3.125 2.0508 0.039062 2.0508 3.0859 0 3.125zm-1.5625-10.938c0.039062-2.0508 3.0859-2.0508 3.125 0-0.039062 2.0508-3.0859 2.0508-3.125 0zm7.8125 6.25c-2.0508-0.039062-2.0508-3.0859 0-3.125 2.0508 0.039062 2.0508 3.0859 0 3.125zm0 4.6875c-2.0508-0.039062-2.0508-3.0859 0-3.125 2.0508 0.039062 2.0508 3.0859 0 3.125zm-1.5625-10.938c0.039062-2.0508 3.0859-2.0508 3.125 0-0.039062 2.0508-3.0859 2.0508-3.125 0zm4.6875 10.938v-12.5c0.03125-2.0508 3.0898-2.0586 3.125 0v12.5c-0.03125 2.0508-3.0898 2.0586-3.125 0zm6.25-4.6875c-2.0508-0.039062-2.0508-3.0859 0-3.125 2.0508 0.039062 2.0508 3.0859 0 3.125zm0 4.6875c-2.0508-0.039062-2.0508-3.0859 0-3.125 2.0508 0.039062 2.0508 3.0859 0 3.125zm-1.5625-10.938c0.039062-2.0508 3.0859-2.0508 3.125 0-0.039062 2.0508-3.0859 2.0508-3.125 0zm7.8125 6.25c-2.0508-0.039062-2.0508-3.0859 0-3.125 2.0508 0.039062 2.0508 3.0859 0 3.125zm0 4.6875c-2.0508-0.039062-2.0508-3.0859 0-3.125 2.0508 0.039062 2.0508 3.0859 0 3.125zm-1.5625-10.938c0.039062-2.0508 3.0859-2.0508 3.125 0-0.039062 2.0508-3.0859 2.0508-3.125 0zm7.8125 6.25c-2.0508-0.039062-2.0508-3.0859 0-3.125 2.0508 0.039062 2.0508 3.0859 0 3.125zm0 4.6875c-2.0508-0.039062-2.0508-3.0859 0-3.125 2.0508 0.039062 2.0508 3.0859 0 3.125zm-1.5625-10.938c0.039062-2.0508 3.0859-2.0508 3.125 0-0.039062 2.0508-3.0859 2.0508-3.125 0zm7.8125 6.25c-2.0508-0.039062-2.0508-3.0859 0-3.125 2.0508 0.039062 2.0508 3.0859 0 3.125zm0 4.6875c-2.0508-0.039062-2.0508-3.0859 0-3.125 2.0508 0.039062 2.0508 3.0859 0 3.125zm-1.5625-10.938c0.039062-2.0508 3.0859-2.0508 3.125 0-0.039062 2.0508-3.0859 2.0508-3.125 0zm7.8125 6.25c-2.0508-0.039062-2.0508-3.0859 0-3.125 2.0508 0.039062 2.0508 3.0859 0 3.125zm0 4.6875c-2.0508-0.039062-2.0508-3.0859 0-3.125 2.0508 0.039062 2.0508 3.0859 0 3.125zm-1.5625-10.938c0.039062-2.0508 3.0859-2.0508 3.125 0-0.039062 2.0508-3.0859 2.0508-3.125 0zm4.6875-25c0.86328 0 1.5625 0.69922 1.5625 1.5625v14.062c0 0.86328-0.69922 1.5625-1.5625 1.5625h-65.625c-0.86328 0-1.5625-0.69922-1.5625-1.5625v-1.8516c0.49219 0.17578 1.0117 0.28906 1.5625 0.28906h28.125c2.5859 0 4.6875-2.1016 4.6875-4.6875v-9.375zm-6.25-14.062h-7.8125c-2.0508-0.035156-2.0547-3.0898 0-3.125h7.8125c2.0508 0.035156 2.0547 3.0898 0 3.125z" />
      </g>
</svg>