<svg xmlns="http://www.w3.org/2000/svg" data-name="Layer 1" viewBox="0 0 100 100" x="0px" y="0px">
      <path
            d="M83.1561371,74.4136087c.0324707-.3440552-.1207886-.5680542-.4168091-.6096191-.2730713-.0383301-.5039062,.1762695-.539856,.5029297-.0407104,.3706665-.0828857,.7411499-.1204834,1.1121216-.1020508,1.0067749-.2047729,2.0134888-.302002,3.020752-.0951538,.9862061-.19104,1.9724731-.2715454,2.9598999-.0285645,.3500977,.151001,.5633545,.4425049,.5924072,.2657471,.0264893,.4997559-.1821289,.536499-.5169678,.0615845-.5609131,.0977783-1.1245728,.1533203-1.6862183,.1719971-1.7382812,.3481445-3.4761353,.522644-5.2141724-.0071411-.0007324-.0142822-.0014038-.0213623-.0021362,.0057373-.0529785,.0120239-.105896,.0170898-.1589966Z" />
      <path
            d="M79.7171966,59.9626199c-8.8670044,0-16.1280518,7.2620239-16.1280518,16.1280518,0,8.8669434,7.2620239,16.1279907,16.1280518,16.1279907,8.8659668,0,16.1279907-7.2620239,16.1279907-16.1279907,0-8.8660278-7.2609863-16.1280518-16.1279907-16.1280518Zm5.2074951,13.8972168c-.2713623,2.5861206-.5437012,5.1721191-.8167725,7.7580566-.0369263,.3496094-.0748291,.6992798-.1201782,1.0479126-.0548096,.4213867-.3119507,.6623535-.7496338,.6894531-.2657471,.0164795-.5331421,.0078735-.7998047,.0078735-1.7814331,.0002441-3.5629272,.0005493-5.3443604-.0009766-.723999-.0006104-.9338989-.223938-1.0032349-.9423828-.1422119-1.4733887-.3109741-2.9441528-.4680176-4.4161377-.1751099-1.6420288-.3511353-3.2840576-.5227051-4.9265137-.0387573-.3713379,.1749268-.6437378,.5441895-.701355,.1359863-.0211792,.2763062-.0197144,.4146729-.0198975,1.333374-.0013428,2.6668091-.0007935,4.0002441-.0003052,1.3867798,.0004272,2.7735596-.0039673,4.1602783,.0026855,.5379639,.0025635,.8031616,.2396851,.7788086,.6735229-.0155029,.2765503-.0445557,.5524902-.0734863,.828064Zm.463562-2.7396851c-1.7787476,.0003662-3.5574951,.0001831-5.3362427,.0003662-1.7695923,.0001831-3.5392456,.0003052-5.3088989,0-.2546387-.000061-.2758789-.0300903-.2315063-.3161011,.1085205-.6994019,.5852661-1.1594238,1.203125-1.1602783,.3912354-.0004883,.7825317-.0036621,1.173645,.0023193,.1045532,.0015869,.1514282-.0355835,.1773682-.1553345,.2385864-1.1025391,1.0355225-1.8145142,2.024353-1.8151245,.6369019-.0003662,1.2738037-.0007324,1.9106445,.0001221,.9772949,.0012817,1.7721558,.7142944,2.001709,1.802124,.0259399,.1227417,.0670776,.1706543,.1816406,.1685791,.4138794-.0074463,.8279419-.0054932,1.2418823-.0020142,.6167603,.005188,1.1027832,.5123901,1.1686401,1.2145386,.0222778,.2372437,.0048218,.2607422-.2063599,.2608032Z" />
      <path
            d="M78.4966522,79.9502908c-.1882324-1.394165-.2578125-2.7998657-.423584-4.1960449-.0565186-.4758911-.0849609-.9550171-.1361694-1.4315796-.0350342-.326416-.2607422-.5333862-.5388794-.515564-.2752075,.0176392-.4502563,.2497559-.4446411,.5934448,.0015869,.0958862,.0063477,.1920166,.0158691,.2874146,.1200562,1.2080688,.2420654,2.4160156,.3620605,3.6240845,.1074219,1.0814819,.2096558,2.1634521,.3215942,3.2444458,.0292358,.2825928,.2683105,.465271,.5338135,.4359741,.2635498-.0290527,.4282227-.225769,.4237061-.5116577-.0011597-.0743408-.0145264-.1484985-.022522-.2228394-.0288696-.4360962-.0328979-.8755493-.0912476-1.3076782Z" />
      <path
            d="M81.0723968,68.3815653c-.6907959-.0037842-1.3817139-.0043335-2.0725708-.0001831-.5679321,.003418-1.1051636,.4608154-1.2775879,1.0773315-.048645,.1738892-.0424805,.1848145,.116333,.1849365,.7363281,.0004272,1.4725952,.0001831,2.2089233,.0003662,.7453613,0,1.4907837-.0010376,2.2362061,.0012207,.0906982,.0003052,.1356812-.0112305,.1013184-.1381226-.170105-.6282959-.7376709-1.1224365-1.3126221-1.1255493Z" />
      <path
            d="M80.3288055,73.9012186c-.1605835-.1118164-.3348999-.1238403-.5145874-.0354614-.2001343,.0983887-.2541504,.2681274-.2537842,.4754639,.0021362,1.1828003,.0010376,2.3656006,.0010376,3.5484619,0,1.1934814,.0014648,2.3869629-.0010376,3.5803833-.0006104,.2921753,.144104,.4700317,.4213257,.5140381,.2919312,.0463867,.4533081-.1243286,.5376587-.3889771,.0465088-.1460571,.0404053-.2946777,.0404663-.4434204,.0006104-1.8861084,.0004883-3.7722168,.0003662-5.6583862-.000061-.3516235,.00354-.7033691-.0032959-1.0548706-.0040283-.2064209-.0432129-.4085083-.2281494-.5372314Z" />
      <path
            d="M60.1744385,76.0906982c0-7.0921021,3.7904663-13.28302,9.4435425-16.7078247l.6914062-8.6217651c.0953369-1.1895142,1.1585693-2.0856323,2.362793-1.991394,1.2041016,.0941772,2.1113281,1.1444702,2.0159912,2.3340454l-.5012207,6.2504272c1.7548828-.5172729,3.6078491-.8062744,5.5302734-.8062744,2.0032349,0,3.9349365,.3040161,5.7545166,.8639526l.6350098-5.350769c.2592773-2.1845703,1.4992676-4.0943604,3.321228-5.0595703,1.7337036-.9185791,3.6444702-2.2802124,3.8300781-3.8839722,.4137573-3.5743408-2.1697998-6.6484375-5.381897-6.6484375h-5.7460327L59.2988892,8.585022c-1.43573-1.7537231-4.0220947-2.0097046-5.7731323-.5756226-1.7531738,1.43573-2.0108032,4.0205078-.5755615,5.7731323l18.5754395,22.6865845H26.7327271L45.3082275,13.7825317c1.4351807-1.7526245,1.1775513-4.3374023-.5756226-5.7731323-1.7520752-1.434082-4.3379517-1.1781006-5.7731323,.5756226l-22.8311768,27.8840942h-5.5314941c-2.7758789,0-5.2766113,2.1499023-5.6229248,5.1426392-.2490234,2.1522827,2.2459717,4.3139038,4.2706909,5.6932373,1.5649414,1.0661011,2.6293335,2.8134155,2.8670654,4.803772l2.9767456,24.9220581c.4699707,3.9343872,3.7062988,7.0734253,7.2036743,7.0734253H61.9060669c-1.1030884-2.4475098-1.7316284-5.1547241-1.7316284-8.0135498Zm-32.6429443-3.06073c-1.2041626,.0942383-2.267395-.8018799-2.362793-1.991394l-1.5984497-19.9348145c-.095459-1.1895752,.8117065-2.2398682,2.0158691-2.3340454,1.2042236-.0942383,2.2674561,.8018799,2.362854,1.991394l1.5985107,19.9348755c.0953979,1.1894531-.8117676,2.2398071-2.0159912,2.3339844Zm16.2705078-2.1315308c0,1.1932983-.8984985,2.1696167-1.9966431,2.1696167h-.399292c-1.0981445,0-1.996582-.9763184-1.996582-2.1696167v-19.9972534c0-1.1932373,.8984375-2.1695557,1.996582-2.1695557h.399292c1.0981445,0,1.9966431,.9763184,1.9966431,2.1695557v19.9972534Zm15.046875,0c0,1.1932983-.8984985,2.1696167-1.9966431,2.1696167h-.399292c-1.0981445,0-1.9966431-.9763184-1.9966431-2.1696167v-19.9972534c0-1.1932373,.8984985-2.1695557,1.9966431-2.1695557h.399292c1.0981445,0,1.9966431,.9763184,1.9966431,2.1695557v19.9972534Z" />
      </svg>