<svg xmlns="http://www.w3.org/2000/svg" version="1.1" viewBox="-5.0 -10.0 110.0 135.0">
  <path
    d="m17.027 61.848v6.3086c0 2.9297 2.3828 5.3125 5.3125 5.3125h16.512l25.234 22.043c1.0312 0.89844 2.3008 1.3672 3.5938 1.3672 0.76953 0 1.5469-0.16406 2.2891-0.5 1.9844-0.90234 3.2188-2.8164 3.2188-5l-0.003906-82.758c0-2.1797-1.2344-4.0938-3.2188-5-1.9844-0.90234-4.2383-0.57031-5.8828 0.86328l-25.234 22.043h-16.512c-2.9297 0-5.3125 2.3828-5.3125 5.3125v6.3008c-5.8594 0.76953-10.402 5.7852-10.402 11.852 0 6.0664 4.543 11.082 10.402 11.852zm49.113-55.008c0.71875-0.625 1.668-0.76562 2.5352-0.37109 0.86719 0.39453 1.3867 1.1992 1.3867 2.1523v82.758c0 0.95312-0.51953 1.7578-1.3867 2.1523-0.86719 0.39453-1.8125 0.25781-2.5352-0.37109l-25.141-21.965v-42.391zm-45.988 25.004c0-1.2031 0.98047-2.1875 2.1875-2.1875h15.535v40.684h-15.535c-1.2031 0-2.1875-0.98047-2.1875-2.1875v-36.312zm-3.125 9.4609v17.387c-4.1289-0.74219-7.2773-4.3516-7.2773-8.6914s3.1484-7.9531 7.2773-8.6914z" />
  <path
    d="m86.359 61.605c0.30469 0.30469 0.70312 0.45703 1.1055 0.45703 0.39844 0 0.80078-0.15234 1.1055-0.45703 6.3984-6.3984 6.3984-16.812 0-23.211-0.60937-0.60938-1.5977-0.60938-2.2109 0-0.60938 0.60938-0.60938 1.5977 0 2.2109 5.1797 5.1797 5.1797 13.609 0 18.789-0.60938 0.60938-0.60938 1.5977 0 2.2109z" />
  </svg>