<svg xmlns="http://www.w3.org/2000/svg" xmlns:xlink="http://www.w3.org/1999/xlink" version="1.1" x="0px" y="0px"
  viewBox="0 0 48 60" style="enable-background:new 0 0 48 48;" xml:space="preserve">
  <path
    d="M24.3032227,42.0507812c-0.6269531,0-1.2563477-0.1289062-1.8500977-0.3896484  c-0.0576172-0.0253906-0.1137695-0.0527344-0.168457-0.0830078l-9.2490234-5.1464844  c-0.8051758-0.4482422-1.7177734-0.6855469-2.6401367-0.6855469H7.5932617C5.0605469,35.7460938,3,33.6855469,3,31.1523438  V17.0058594c0-2.5327148,2.0605469-4.5932617,4.5932617-4.5932617h2.8022461c0.9213867,0,1.8344727-0.2368164,2.640625-0.6850586  l9.2485352-5.1469727c0.0546875-0.0302734,0.1108398-0.0585938,0.168457-0.0834961  c1.4262695-0.6259766,3.0546875-0.4916992,4.3583984,0.359375s2.0820312,2.2890625,2.0820312,3.8461914v26.753418  c0,1.5566406-0.7783203,2.9951172-2.0820312,3.8457031C26.0517578,41.7988281,25.1796875,42.0507812,24.3032227,42.0507812z   M24.1206055,38.0214844c0.2280273,0.0771484,0.4116211-0.0087891,0.5043945-0.0683594  c0.1000977-0.0664062,0.2685547-0.2177734,0.2685547-0.4970703v-26.753418c0-0.2797852-0.168457-0.4316406-0.269043-0.4970703  c-0.0922852-0.0605469-0.2758789-0.1450195-0.5039062-0.0688477l-9.1396484,5.0859375  c-1.3994141,0.7783203-2.9848633,1.1899414-4.5854492,1.1899414H7.5932617C7.2661133,16.4125977,7,16.6787109,7,17.0058594  v14.1464844c0,0.3271484,0.2661133,0.59375,0.5932617,0.59375h2.8022461c1.6015625,0,3.1875,0.4111328,4.5859375,1.1904297  L24.1206055,38.0214844z M34.2392578,31.1103516c2.6591797-1.2958984,4.3779297-4.0537109,4.3779297-7.0263672  c0-3.0092773-1.6748047-5.7036133-4.3701172-7.0317383c-0.9902344-0.487793-2.1894531-0.0800781-2.6777344,0.9101562  c-0.4882812,0.9907227-0.0810547,2.1894531,0.9101562,2.6777344c1.3183594,0.6499023,2.1376953,1.9692383,2.1376953,3.4438477  c0,1.4755859-0.8164062,2.7900391-2.1298828,3.4306641c-0.9931641,0.484375-1.40625,1.6816406-0.921875,2.6738281  c0.3466797,0.7109375,1.0585938,1.1240234,1.7998047,1.1240234C33.6591797,31.3125,33.9570312,31.2480469,34.2392578,31.1103516z   M38.6826172,35.4033203c4.2802734-2.0878906,7.046875-6.5292969,7.046875-11.3154297  c0-4.8486328-2.6972656-9.1894531-7.0400391-11.3286133c-0.9921875-0.4887695-2.1904297-0.0791016-2.6777344,0.9106445  c-0.4882812,0.9912109-0.0810547,2.1899414,0.9101562,2.6782227c2.9658203,1.4604492,4.8076172,4.4262695,4.8076172,7.7397461  c0,3.3173828-1.8398438,6.2763672-4.8007812,7.7197266c-0.9921875,0.484375-1.4052734,1.6816406-0.9208984,2.6748047  c0.3466797,0.7099609,1.0585938,1.1230469,1.7998047,1.1230469C38.1015625,35.6054688,38.4003906,35.5410156,38.6826172,35.4033203z  " />
  </svg>