<svg xmlns="http://www.w3.org/2000/svg" version="1.1" viewBox="-5.0 -10.0 110.0 135.0">
  <g>
    <path
      d="m53.332 14.125c-2.457-1.25-5.332-1.043-7.582 0.54297l-21.5 15.332s-0.375 0.20703-0.625 0.20703h-11.168c-4 0-7.293 3.293-7.293 7.293v25c0 4 3.293 7.293 7.293 7.293h11.168c0.20703 0 0.41797 0.082031 0.625 0.20703l21.5 15.332c1.25 0.91797 2.75 1.375 4.25 1.375 1.125 0 2.293-0.25 3.332-0.83203 2.457-1.25 3.957-3.75 3.957-6.5l0.003907-58.793c0-2.75-1.5-5.207-3.957-6.5z" />
    <path
      d="m75 86.457c-0.95703 0-1.875-0.41797-2.5-1.25-1.043-1.375-0.75-3.332 0.625-4.375 9.793-7.375 15.418-18.582 15.418-30.832s-5.625-23.457-15.418-30.832c-1.375-1.043-1.668-3-0.625-4.375s3-1.668 4.375-0.625c11.375 8.543 17.918 21.625 17.918 35.832s-6.543 27.293-17.918 35.832c-0.54297 0.41797-1.207 0.625-1.875 0.625z" />
    <path
      d="m66.668 71.875c-0.95703 0-1.875-0.41797-2.5-1.25-1.043-1.375-0.75-3.332 0.625-4.375 5.168-3.875 8.125-9.793 8.125-16.25s-2.957-12.375-8.125-16.25c-1.375-1.043-1.668-3-0.625-4.375s3-1.668 4.375-0.625c6.75 5.082 10.625 12.832 10.625 21.25s-3.875 16.168-10.625 21.25c-0.54297 0.41797-1.207 0.625-1.875 0.625z" />
  </g>
</svg>